<svg id="Capa_1" enable-background="new 0 0 512 512" height="512" viewBox="0 0 512 512" width="512" xmlns="http://www.w3.org/2000/svg"><g><g><g><path d="m304.661 421.357h-96.511c-5.523 0-10-4.478-10-10s4.477-10 10-10h96.511c5.523 0 10 4.478 10 10s-4.477 10-10 10z"/></g><g><path d="m334.533 461.145h-156.255c-5.523 0-10-4.478-10-10s4.477-10 10-10h156.255c5.523 0 10 4.478 10 10s-4.477 10-10 10z"/></g><g><g><path d="m256.405 68.077c-5.523 0-10-4.478-10-10v-10.077c0-5.522 4.477-10 10-10s10 4.478 10 10v10.077c0 5.523-4.477 10-10 10z"/></g><g><path d="m256.405 307.915c-5.523 0-10-4.478-10-10v-10.078c0-5.522 4.477-10 10-10s10 4.478 10 10v10.078c0 5.523-4.477 10-10 10z"/></g></g><g><g><path d="m337.638 101.725c-2.56 0-5.118-.977-7.071-2.929-3.905-3.905-3.905-10.237 0-14.143l16.946-16.945c3.905-3.903 10.237-3.903 14.142 0 3.905 3.905 3.905 10.237 0 14.143l-16.946 16.945c-1.953 1.952-4.512 2.929-7.071 2.929z"/></g><g><path d="m158.228 281.135c-2.56 0-5.118-.977-7.071-2.929-3.905-3.905-3.905-10.237 0-14.143l16.946-16.945c3.905-3.904 10.236-3.903 14.142 0 3.905 3.905 3.905 10.237 0 14.143l-16.946 16.945c-1.953 1.952-4.512 2.929-7.071 2.929z"/></g></g><g><g><path d="m381.363 182.957h-10.078c-5.523 0-10-4.478-10-10s4.477-10 10-10h10.078c5.523 0 10 4.478 10 10s-4.477 10-10 10z"/></g><g><path d="m141.526 182.957h-10.078c-5.523 0-10-4.478-10-10s4.477-10 10-10h10.078c5.523 0 10 4.478 10 10s-4.477 10-10 10z"/></g></g><g><g><path d="m175.173 101.725c-2.559 0-5.118-.977-7.071-2.929l-16.946-16.945c-3.905-3.905-3.906-10.237 0-14.143 3.905-3.904 10.237-3.904 14.142 0l16.946 16.945c3.905 3.905 3.906 10.237 0 14.143-1.952 1.952-4.512 2.929-7.071 2.929z"/></g><g><path d="m354.583 281.135c-2.559 0-5.118-.977-7.071-2.929l-16.946-16.945c-3.905-3.905-3.906-10.237 0-14.143 3.905-3.904 10.237-3.904 14.142 0l16.946 16.945c3.905 3.905 3.906 10.237 0 14.143-1.952 1.952-4.511 2.929-7.071 2.929z"/></g></g><path d="m219.695 246.108c-3.483 0-6.943-1.084-9.854-3.201-4.91-3.569-7.505-9.529-6.772-15.554l3.942-32.41-22.267-23.908c-4.139-4.444-5.546-10.794-3.67-16.569 1.876-5.778 6.748-10.093 12.714-11.259l32.095-6.272 15.89-28.543c2.953-5.304 8.559-8.599 14.632-8.599s11.68 3.294 14.633 8.599l15.89 28.543 32.096 6.272c5.966 1.166 10.838 5.48 12.714 11.26 1.875 5.775.468 12.124-3.671 16.568l-22.267 23.908 3.943 32.41c.733 6.025-1.862 11.984-6.772 15.555-4.914 3.572-11.392 4.203-16.903 1.645l-29.661-13.767-29.661 13.767c-2.248 1.043-4.655 1.555-7.051 1.555zm36.71-36.346c1.438 0 2.875.31 4.21.93l28.565 13.258-3.797-31.209c-.356-2.929.599-5.865 2.609-8.023l21.429-23.008-30.889-6.037c-2.892-.565-5.386-2.376-6.819-4.95l-15.308-27.497-15.308 27.497c-1.433 2.574-3.928 4.385-6.819 4.95l-30.889 6.037 21.429 23.008c2.01 2.158 2.965 5.095 2.609 8.023l-3.796 31.209 28.565-13.258c1.334-.621 2.772-.93 4.209-.93z"/><path d="m467.76 138.141h-2.61v-103.417c0-19.147-15.577-34.724-34.724-34.724h-348.852c-19.147 0-34.724 15.577-34.724 34.724v103.417h-2.61c-24.394 0-44.24 19.845-44.24 44.239v285.376c0 24.396 19.848 44.244 44.245 44.244h423.511c24.396 0 44.244-19.848 44.244-44.244v-97.48c0-5.522-4.477-10-10-10s-10 4.478-10 10v64.228l-126.939-115.344 126.939-104.886v65.589c0 5.522 4.477 10 10 10s10-4.478 10-10v-97.483c0-24.394-19.846-44.239-44.24-44.239zm-400.91-103.417c0-8.119 6.605-14.724 14.724-14.724h348.852c8.119 0 14.724 6.605 14.724 14.724v192.317l-164.437 135.869h-49.427l-164.436-135.869zm-46.85 179.55 126.939 104.886-126.939 115.344zm0-31.894c0-13.365 10.874-24.239 24.24-24.239h2.61v52.375l-26.85-22.185zm472 279.147v6.229c0 13.368-10.876 24.244-24.245 24.244h-423.51c-13.369 0-24.245-10.876-24.245-24.244v-6.229l142.515-129.497 58.805 48.589c1.792 1.48 4.044 2.291 6.37 2.291h56.62c2.325 0 4.577-.811 6.37-2.291l58.805-48.589zm-26.85-303.386h2.61c13.366 0 24.24 10.874 24.24 24.239v5.951l-26.85 22.185z"/><g><path d="m502 334.89c-4.182 0-7.997-2.709-9.405-6.636-1.388-3.871-.204-8.328 2.936-10.991 3.274-2.777 8.098-3.135 11.746-.869 3.494 2.171 5.336 6.412 4.523 10.446-.929 4.614-5.082 8.05-9.8 8.05z"/></g></g></g></svg>