<?xml version="1.0"?>
<svg xmlns="http://www.w3.org/2000/svg" viewBox="0 0 64 64" width="512" height="512"><g id="Life_ring" data-name="Life ring"><path d="M62,32a29.45,29.45,0,0,0-.992-7.629,27.042,27.042,0,0,0-.857-2.7A12.99,12.99,0,0,0,42.33,3.849a27.047,27.047,0,0,0-2.691-.855,29.994,29.994,0,0,0-15.268,0,27.042,27.042,0,0,0-2.7.857A12.99,12.99,0,0,0,3.849,21.67a27.047,27.047,0,0,0-.855,2.691,29.841,29.841,0,0,0,0,15.268,27.017,27.017,0,0,0,.857,2.7A12.99,12.99,0,0,0,21.67,60.151a27.391,27.391,0,0,0,2.689.854h.014a29.824,29.824,0,0,0,15.256,0h.012a27.149,27.149,0,0,0,2.689-.854A12.99,12.99,0,0,0,60.151,42.33a27.047,27.047,0,0,0,.855-2.691A29.5,29.5,0,0,0,62,32ZM42.073,58.12c-.6.236-1.219.442-1.846.634l-1.656-13.29a15.082,15.082,0,0,0,6.893-6.893l13.289,1.656c-.191.628-.4,1.25-.637,1.855A27.884,27.884,0,0,1,42.073,58.12Zm-18.3.634c-.627-.192-1.246-.4-1.845-.634l-.011,0A27.876,27.876,0,0,1,5.884,42.082l0-.011c-.236-.6-.442-1.217-.634-1.844l13.29-1.656a15.079,15.079,0,0,0,6.9,6.9ZM4,32a27.6,27.6,0,0,1,.73-6.276l13.015,1.631a14.853,14.853,0,0,0,0,9.3L4.729,38.276A27.662,27.662,0,0,1,4,32ZM21.927,5.88c.6-.235,1.218-.442,1.846-.634l1.666,13.286a15.077,15.077,0,0,0-6.907,6.907L5.246,23.774c.192-.629.4-1.251.638-1.856A27.884,27.884,0,0,1,21.927,5.88ZM19,32A13,13,0,1,1,32,45,13.015,13.015,0,0,1,19,32ZM40.227,5.247c.628.191,1.25.4,1.855.637A27.884,27.884,0,0,1,58.12,21.927c.235.6.442,1.218.634,1.846L45.468,25.439a15.079,15.079,0,0,0-6.9-6.9ZM60,32a27.589,27.589,0,0,1-.73,6.276L46.252,36.654a14.853,14.853,0,0,0,0-9.3l13.016-1.631A27.662,27.662,0,0,1,60,32Zm0-17a11,11,0,0,1-.857,4.247A29.874,29.874,0,0,0,44.754,4.857,10.991,10.991,0,0,1,60,15ZM38.276,4.731,36.654,17.748a14.853,14.853,0,0,0-9.3,0L25.724,4.73A28,28,0,0,1,38.276,4.731ZM15,4a11,11,0,0,1,4.247.857A29.874,29.874,0,0,0,4.857,19.246,10.991,10.991,0,0,1,15,4Zm0,56A11.007,11.007,0,0,1,4.848,44.756a29.9,29.9,0,0,0,14.4,14.4A10.988,10.988,0,0,1,15,60Zm10.724-.73,1.631-13.015a14.853,14.853,0,0,0,9.3,0L38.276,59.27A28.055,28.055,0,0,1,25.724,59.27ZM49,60a11,11,0,0,1-4.247-.857,29.874,29.874,0,0,0,14.39-14.389A10.991,10.991,0,0,1,49,60Z"/></g></svg>
